<?xml version="1.0" encoding="UTF-8"?>
<svg width="42px" height="42px" viewBox="0 0 42 42" version="1.1" xmlns="http://www.w3.org/2000/svg" xmlns:xlink="http://www.w3.org/1999/xlink">
    <title>Group 30</title>
    <defs>
        <filter id="filter-1">
            <feColorMatrix in="SourceGraphic" type="matrix" values="0 0 0 0 1.000000 0 0 0 0 1.000000 0 0 0 0 1.000000 0 0 0 1.000000 0"></feColorMatrix>
        </filter>
    </defs>
    <g id="Course-Detail" stroke="none" stroke-width="1" fill="none" fill-rule="evenodd">
        <g id="Course-Detail---Layout-1" transform="translate(-595.000000, -508.000000)">
            <g id="Group-34-Copy" transform="translate(0.000000, 116.000000)">
                <g id="Group-30" transform="translate(595.000000, 392.000000)">
                    <rect id="Rectangle" stroke="#979797" fill="#D8D8D8" opacity="0" x="0.5" y="0.5" width="41" height="41"></rect>
                    <g filter="url(#filter-1)" id="icons8-certificate-(2)" stroke-linejoin="round">
                        <g transform="translate(9.000000, 5.000000)">
                            <path d="M4.56,9.12 L19.76,9.12 M4.56,13.68 L19.76,13.68 M12.92,22.952 C12.844,22.496 12.464,22.116 12.008,22.04 C12.008,21.964 11.932,21.964 11.932,21.888 C12.084,21.432 12.008,20.976 11.628,20.672 C11.248,20.368 10.716,20.368 10.336,20.596 C10.26,20.596 10.26,20.596 10.184,20.52 L10.184,20.52 C10.032,20.064 9.652,19.76 9.12,19.76 C8.664,19.76 8.208,20.064 8.056,20.52 L8.056,20.52 C7.98,20.52 7.98,20.52 7.904,20.596 C7.524,20.368 6.992,20.368 6.612,20.672 C6.232,20.976 6.156,21.432 6.308,21.888 C6.308,21.964 6.232,21.964 6.232,22.04 C5.776,22.116 5.396,22.496 5.32,22.952 C5.244,23.408 5.472,23.864 5.852,24.092 C5.852,24.168 5.852,24.244 5.852,24.32 C5.548,24.7 5.548,25.156 5.776,25.536 C6.004,25.916 6.46,26.144 6.916,26.068 C6.992,26.144 7.068,26.144 7.068,26.22 C7.068,26.676 7.372,27.056 7.752,27.208 C8.208,27.36 8.664,27.208 8.968,26.904 C9.044,26.904 9.044,26.904 9.12,26.904 C9.196,26.904 9.196,26.904 9.272,26.904 C9.5,27.132 9.804,27.284 10.108,27.284 C10.26,27.284 10.336,27.284 10.488,27.208 C10.944,27.056 11.172,26.676 11.172,26.22 C11.248,26.144 11.324,26.144 11.324,26.068 C11.78,26.144 12.236,25.916 12.464,25.536 C12.692,25.156 12.616,24.624 12.388,24.32 C12.388,24.244 12.388,24.168 12.388,24.092 C12.768,23.864 12.996,23.408 12.92,22.952 Z" id="Shape" stroke="#000000" stroke-width="1.52"></path>
                            <polyline id="Path" stroke="#000000" stroke-width="1.52" points="4.56 30.4 0 30.4 0 0 24.32 0 24.32 30.4 13.68 30.4"></polyline>
                            <polyline id="Path" stroke="#000000" stroke-width="1.52" points="12.16 25.84 12.16 32.68 9.12 30.4 6.08 32.68 6.08 25.84"></polyline>
                        </g>
                    </g>
                </g>
            </g>
        </g>
    </g>
</svg>