<?xml version="1.0"?>
<svg xmlns="http://www.w3.org/2000/svg" xmlns:xlink="http://www.w3.org/1999/xlink" xmlns:svgjs="http://svgjs.com/svgjs" version="1.1" width="512" height="512" x="0" y="0" viewBox="0 0 480.007 480.007" style="enable-background:new 0 0 512 512" xml:space="preserve" class=""><g>
<g xmlns="http://www.w3.org/2000/svg">
	<path style="" d="M144,289.115c50.4-10.08,88-51.44,88-100.96v-8.64h-32v8.92   c-0.637,31.285-21.517,58.531-51.56,67.28c-7.749,2.528-15.849,3.811-24,3.8H124c-8.295,0.02-16.542-1.262-24.44-3.8   c-30.028-8.771-50.898-36.004-51.56-67.28v-8.92H8v8.64c0,49.52,37.6,90.88,88,100.96C111.84,292.315,128.16,292.315,144,289.115z" fill="#ffffff" data-original="#726658" class=""/>
	<path style="" d="M144,315.515v-26.4c-15.84,3.2-32.16,3.2-48,0v26.4c0,16.8,7.2,24,16,24h16   C136.8,339.515,144,332.315,144,315.515z" fill="#ffffff" data-original="#726658" class=""/>
</g>
<g xmlns="http://www.w3.org/2000/svg">
	<path style="" d="M424,227.515c-26.51,0-48,21.49-48,48s21.49,48,48,48c26.51,0,48-21.49,48-48   S450.51,227.515,424,227.515z M424,291.515c-8.837,0-16-7.163-16-16s7.163-16,16-16s16,7.163,16,16S432.837,291.515,424,291.515z" fill="#d8d8d8" data-original="#e6e7e8" class=""/>
	<circle style="" cx="72" cy="35.515" r="16" fill="#d8d8d8" data-original="#e6e7e8" class=""/>
	<path style="" d="M184,35.515c-0.011-8.837-7.183-15.991-16.02-15.98c-8.837,0.011-15.991,7.183-15.98,16.02   s7.183,15.991,16.02,15.98c8.821-0.011,15.969-7.159,15.98-15.98c-0.128-0.04-0.24-0.04-0.36-0.04H184z" fill="#d8d8d8" data-original="#e6e7e8" class=""/>
</g>
<path xmlns="http://www.w3.org/2000/svg" style="" d="M183.64,35.515c0.12,0,0.232,0,0.36,0.04v-0.04H183.64z" fill="#ffffff" data-original="#726658" class=""/>
<circle xmlns="http://www.w3.org/2000/svg" style="" cx="424" cy="275.515" r="16" fill="#d8d8d8" data-original="#e6e7e8" class=""/>
<g xmlns="http://www.w3.org/2000/svg">
	<path style="" d="M432,220.155v-14.544c0-40.128-30.504-72.8-68-72.8c-36.416,0-66.904,31.68-68,70.624h0.464   l-0.464,0.08v157.656c0,50.4-37.68,91.328-84,91.328s-84-40.984-84-91.328v-13.656c11.6,0,24-8.408,24-32v-20.12   c51.344-13.128,88-57.216,88-107.2v-16.68h-16l-0.336-104.12c-0.116-19.273-13.946-35.729-32.912-39.16   c-4.091-12.533-17.568-19.377-30.102-15.285s-19.377,17.568-15.285,30.102s17.568,19.377,30.102,15.285   c6.711-2.191,12.108-7.24,14.741-13.79c10.249,2.916,17.349,12.24,17.432,22.896L208,171.515h-16v16.912   c-0.638,27.827-19.294,52.009-46.048,59.688c-14.315,4.541-29.685,4.541-44,0C75.229,240.41,56.615,216.232,56,188.427v-16.912H32   v-104c0.046-10.813,7.318-20.261,17.76-23.072c4.869,12.395,18.864,18.495,31.259,13.626c12.395-4.869,18.495-18.864,13.626-31.259   S75.78,8.315,63.386,13.184c-6.716,2.639-11.898,8.146-14.122,15.011C30.091,31.471,16.053,48.064,16,67.515v104H0v16.64   c0,50.04,36.68,94.144,88,107.24v20.12c0,23.592,12.4,32,24,32v13.656c0,59.2,44.856,107.328,100,107.328s100-48.184,100-107.328   V203.899c0.8-30.36,24.144-55.064,52-55.064c28.672,0,52,25.472,52,56.8v14.52c-30.611,4.418-51.844,32.815-47.426,63.426   s32.815,51.844,63.426,47.426s51.844-32.815,47.426-63.426C475.879,243.007,456.574,223.702,432,220.155L432,220.155z M168,43.515   c-4.418,0-8-3.582-8-8s3.582-8,8-8s8,3.582,8,8S172.418,43.515,168,43.515z M72,27.515c4.418,0,8,3.582,8,8s-3.582,8-8,8   s-8-3.582-8-8S67.582,27.515,72,27.515z M16,188.155v-0.64h24v0.912c0.6,34.771,23.733,65.116,57.104,74.904   c17.487,5.537,36.257,5.537,53.744,0c33.387-9.775,56.541-40.121,57.152-74.904v-0.912h16v0.64c0,44.504-34.304,83.664-81.6,93.136   c-11.106,2.224-22.481,2.782-33.752,1.656c-3.71-0.36-7.398-0.918-11.048-1.672C50.304,271.819,16,232.659,16,188.155L16,188.155z    M104,315.515v-16.976c0.64,0.08,1.296,0.112,1.944,0.176c0.8,0.088,1.6,0.152,2.4,0.224c3.784,0.336,7.6,0.56,11.448,0.568h0.4   c3.84,0,7.648-0.232,11.408-0.568c0.8-0.072,1.648-0.136,2.472-0.224c0.632-0.072,1.288-0.096,1.92-0.176v16.976c0,4.8-0.8,16-8,16   H112C104.8,331.515,104,320.315,104,315.515z M424,315.515c-22.091,0-40-17.909-40-40s17.909-40,40-40c22.091,0,40,17.909,40,40   C463.974,297.596,446.08,315.489,424,315.515z" fill="#ffffff" data-original="#231f20" class=""/>
	<path style="" d="M424,299.515c-13.255,0-24-10.745-24-24s10.745-24,24-24s24,10.745,24,24   S437.255,299.515,424,299.515z M424,267.515c-4.418,0-8,3.582-8,8s3.582,8,8,8s8-3.582,8-8S428.418,267.515,424,267.515z" fill="#ffffff" data-original="#231f20" class=""/>
</g>
<g xmlns="http://www.w3.org/2000/svg">
</g>
<g xmlns="http://www.w3.org/2000/svg">
</g>
<g xmlns="http://www.w3.org/2000/svg">
</g>
<g xmlns="http://www.w3.org/2000/svg">
</g>
<g xmlns="http://www.w3.org/2000/svg">
</g>
<g xmlns="http://www.w3.org/2000/svg">
</g>
<g xmlns="http://www.w3.org/2000/svg">
</g>
<g xmlns="http://www.w3.org/2000/svg">
</g>
<g xmlns="http://www.w3.org/2000/svg">
</g>
<g xmlns="http://www.w3.org/2000/svg">
</g>
<g xmlns="http://www.w3.org/2000/svg">
</g>
<g xmlns="http://www.w3.org/2000/svg">
</g>
<g xmlns="http://www.w3.org/2000/svg">
</g>
<g xmlns="http://www.w3.org/2000/svg">
</g>
<g xmlns="http://www.w3.org/2000/svg">
</g>
</g></svg>
